<svg style="display: none">
  <symbol id="profile" viewBox="0 0 24 24" xmlns="http://www.w3.org/2000/svg">
    <path
      fill-rule="evenodd"
      clip-rule="evenodd"
      d="M17.3266 18.6244C19.2617 17.0664 20.5 14.6778 20.5 12C20.5 7.30558 16.6944 3.5 12 3.5C7.30558 3.5 3.5 7.30558 3.5 12C3.5 14.6778 4.73826 17.0664 6.67343 18.6244C7.2842 16.2525 9.43744 14.5 12 14.5C14.5626 14.5 16.7158 16.2525 17.3266 18.6244ZM15.9712 19.5172C15.7328 17.5357 14.0457 16 12 16C9.95426 16 8.26721 17.5357 8.02884 19.5172C9.21409 20.1447 10.5655 20.5 12 20.5C13.4345 20.5 14.7859 20.1447 15.9712 19.5172ZM12 22C17.5228 22 22 17.5228 22 12C22 6.47715 17.5228 2 12 2C6.47715 2 2 6.47715 2 12C2 17.5228 6.47715 22 12 22ZM12 11.5C12.8284 11.5 13.5 10.8284 13.5 10C13.5 9.17157 12.8284 8.5 12 8.5C11.1716 8.5 10.5 9.17157 10.5 10C10.5 10.8284 11.1716 11.5 12 11.5ZM12 13C13.6569 13 15 11.6569 15 10C15 8.34315 13.6569 7 12 7C10.3431 7 9 8.34315 9 10C9 11.6569 10.3431 13 12 13Z"
      fill="inherit"
    />
  </symbol>
  <symbol
    id="close"
    viewBox="0 0 24 24"
    xmlns="http://www.w3.org/2000/svg"
    xmlns:xlink="http://www.w3.org/1999/xlink"
  >
    <path
      d="M10.9399 12.001L4.99878 17.9419L6.05933 19.0024L12.0005 13.0615L17.9417 19.0024L19.0022 17.9419L13.0613 12.001L19.0022 6.05957L17.9417 4.99902L12.0005 10.9399L6.05957 4.99902L4.99878 6.05957L10.9399 12.001Z"
      fill="inherit"
      fill-rule="evenodd"
    />
  </symbol>

  <symbol
    id="empty-cart"
    xmlns="http://www.w3.org/2000/svg"
    xml:space="preserve"
    fill="inherit"
    viewBox="0 0 231.523 231.523"
  >
    <path
      d="M107.415 145.798c.399 3.858 3.656 6.73 7.451 6.73.258 0 .518-.013.78-.04 4.12-.426 7.115-4.111 6.689-8.231l-3.459-33.468c-.426-4.12-4.113-7.111-8.231-6.689-4.12.426-7.115 4.111-6.689 8.231l3.459 33.467zM154.351 152.488c.262.027.522.04.78.04 3.796 0 7.052-2.872 7.451-6.73l3.458-33.468c.426-4.121-2.569-7.806-6.689-8.231-4.123-.421-7.806 2.57-8.232 6.689l-3.458 33.468c-.426 4.121 2.569 7.806 6.69 8.232zM96.278 185.088c-12.801 0-23.215 10.414-23.215 23.215 0 12.804 10.414 23.221 23.215 23.221s23.216-10.417 23.216-23.221c0-12.801-10.415-23.215-23.216-23.215zm0 31.435c-4.53 0-8.215-3.688-8.215-8.221 0-4.53 3.685-8.215 8.215-8.215 4.53 0 8.216 3.685 8.216 8.215 0 4.533-3.686 8.221-8.216 8.221zM173.719 185.088c-12.801 0-23.216 10.414-23.216 23.215 0 12.804 10.414 23.221 23.216 23.221 12.802 0 23.218-10.417 23.218-23.221 0-12.801-10.416-23.215-23.218-23.215zm0 31.435c-4.53 0-8.216-3.688-8.216-8.221 0-4.53 3.686-8.215 8.216-8.215 4.531 0 8.218 3.685 8.218 8.215 0 4.533-3.686 8.221-8.218 8.221z"
    />
    <path
      d="M218.58 79.08c-1.42-1.837-3.611-2.913-5.933-2.913H63.152l-6.278-24.141c-.86-3.305-3.844-5.612-7.259-5.612H18.876c-4.142 0-7.5 3.358-7.5 7.5s3.358 7.5 7.5 7.5h24.94l6.227 23.946c.031.134.066.267.104.398l23.157 89.046c.86 3.305 3.844 5.612 7.259 5.612h108.874c3.415 0 6.399-2.307 7.259-5.612l23.21-89.25c.584-2.245.094-4.636-1.326-6.474zm-34.942 86.338H86.362l-19.309-74.25h135.895l-19.31 74.25zM105.556 52.851c1.464 1.463 3.383 2.195 5.302 2.195 1.92 0 3.84-.733 5.305-2.198 2.928-2.93 2.927-7.679-.003-10.607L92.573 18.665c-2.93-2.928-7.678-2.927-10.607.002-2.928 2.93-2.927 7.679.002 10.607l23.588 23.577zM159.174 55.045c1.92 0 3.841-.733 5.306-2.199l23.552-23.573c2.928-2.93 2.925-7.679-.005-10.606-2.93-2.928-7.679-2.925-10.606.005l-23.552 23.573c-2.928 2.93-2.925 7.679.005 10.607 1.464 1.462 3.382 2.193 5.3 2.193zM135.006 48.311h.002c4.141 0 7.499-3.357 7.5-7.498l.008-33.311C142.517 3.36 139.16.001 135.018 0h-.001c-4.142 0-7.5 3.357-7.501 7.498l-.008 33.311c-.001 4.142 3.356 7.501 7.498 7.502z"
    />
  </symbol>

  <symbol
    id="rubbish-bin"
    xmlns="http://www.w3.org/2000/svg"
    fill="inherit"
    viewBox="0 0 24 24"
  >
    <g stroke="inherit" stroke-linecap="round" stroke-width="1.5">
      <path
        d="M9.1709 4c.41183-1.16519 1.5231-2 2.8293-2s2.4175.83481 2.8293 2M20.5001 6H3.5M18.8332 8.5l-.46 6.8991c-.177 2.6549-.2655 3.9824-1.1305 4.7916C16.3777 21 15.0473 21 12.3865 21h-.7733c-2.66085 0-3.99125 0-4.85626-.8093-.865-.8092-.9535-2.1367-1.1305-4.7916L5.1665 8.5M9.5 11l.5 5M14.5 11l-.5 5"
      />
    </g>
  </symbol>
  <symbol
    id="i"
    viewBox="0 0 16 16"
    fill="inherit"
    xmlns="http://www.w3.org/2000/svg"
    xmlns:xlink="http://www.w3.org/1999/xlink"
  >
    <path
      d="M13.66 8C13.66 11.12 11.12 13.66 8 13.66C4.87 13.66 2.33 11.12 2.33 8C2.33 4.87 4.87 2.33 8 2.33C11.12 2.33 13.66 4.87 13.66 8ZM14.66 8C14.66 11.68 11.68 14.66 8 14.66C4.31 14.66 1.33 11.68 1.33 8C1.33 4.31 4.31 1.33 8 1.33C11.68 1.33 14.66 4.31 14.66 8ZM8.64 4.8L8.64 6.03L7.35 6.03L7.35 4.8L8.64 4.8ZM7.41 11.33L7.41 7L8.58 7L8.58 11.33L7.41 11.33Z"
      fill="inherit"
      fill-opacity="1.000000"
      fill-rule="evenodd"
    />
  </symbol>

  <symbol id="tringles-decor" xmlns="http://www.w3.org/2000/svg">
    <path fill="inherit" d="M18.522461 0h26.457661v7.937299H18.522461z" />
    <path
      fill="#81A4B0"
      d="M0 0h37.04c4.38 0 7.93 3.55 7.93 7.93L25.79 26.45 0 0Z"
    />
  </symbol>

  <symbol
    id="line-decoration"
    width="224.000000"
    height="2.000000"
    viewBox="0 0 224 2"
    xmlns="http://www.w3.org/2000/svg"
    xmlns:xlink="http://www.w3.org/1999/xlink"
  >
    <rect
      width="22.000000"
      height="2.000000"
      fill="inherit"
      fill-opacity="inherit"
    />
    <rect
      x="26.000000"
      width="22.000000"
      height="2.000000"
      fill="inherit"
      fill-opacity="inherit"
    />
    <rect
      x="52.000000"
      width="22.000000"
      height="2.000000"
      fill="inherit"
      fill-opacity="inherit"
    />
    <rect
      x="78.000000"
      width="20.000000"
      height="2.000000"
      fill="inherit"
      fill-opacity="inherit"
    />
    <rect
      x="102.000000"
      width="18.000000"
      height="2.000000"
      fill="inherit"
      fill-opacity="inherit"
    />
    <rect
      x="124.000000"
      width="16.000000"
      height="2.000000"
      fill="inherit"
      fill-opacity="inherit"
    />
    <rect
      x="144.000000"
      width="14.000000"
      height="2.000000"
      fill="inherit"
      fill-opacity="inherit"
    />
    <rect
      x="162.000000"
      width="12.000000"
      height="2.000000"
      fill="inherit"
      fill-opacity="inherit"
    />
    <rect
      x="178.000000"
      width="10.000000"
      height="2.000000"
      fill="inherit"
      fill-opacity="inherit"
    />
    <rect
      x="192.000000"
      width="8.000000"
      height="2.000000"
      fill="inherit"
      fill-opacity="inherit"
    />
    <rect
      x="204.000000"
      width="6.000000"
      height="2.000000"
      fill="inherit"
      fill-opacity="inherit"
    />
    <rect
      x="214.000000"
      width="4.000000"
      height="2.000000"
      fill="inherit"
      fill-opacity="inherit"
    />
    <rect
      x="222.000000"
      width="2.000000"
      height="2.000000"
      fill="inherit"
      fill-opacity="inherit"
    />
  </symbol>

  <symbol
    id="arrow2"
    version="1.1"
    fill="inherit"
    xmlns="http://www.w3.org/2000/svg"
    xmlns:xlink="http://www.w3.org/1999/xlink"
    x="0px"
    y="0px"
    viewBox="0 0 492.004 492.004"
    style="enable-background: new 0 0 492.004 492.004"
    xml:space="preserve"
  >
    <g>
      <g>
        <path
          d="M382.678,226.804L163.73,7.86C158.666,2.792,151.906,0,144.698,0s-13.968,2.792-19.032,7.86l-16.124,16.12 c-10.492,10.504-10.492,27.576,0,38.064L293.398,245.9l-184.06,184.06c-5.064,5.068-7.86,11.824-7.86,19.028 c0,7.212,2.796,13.968,7.86,19.04l16.124,16.116c5.068,5.068,11.824,7.86,19.032,7.86s13.968-2.792,19.032-7.86L382.678,265 c5.076-5.084,7.864-11.872,7.848-19.088C390.542,238.668,387.754,231.884,382.678,226.804z"
        />
      </g>
    </g>
  </symbol>
  <symbol id="call" viewBox="0 0 36 36" xmlns="http://www.w3.org/2000/svg">
    <path
      fill="inherit"
      fill-rule="evenodd"
      clip-rule="evenodd"
      d="M5.6814 4.50139C5.66272 4.50047 5.64391 4.5 5.625 4.5C5.00368 4.5 4.5 5.00368 4.5 5.625V8.27641C4.5 21.1008 14.8999 31.4965 27.7237 31.4965H30.3756C30.9969 31.4965 31.5006 30.9928 31.5006 30.3715C31.5006 30.3521 31.5001 30.3328 31.4991 30.3136V24.9596C31.4991 24.4946 31.213 24.0775 30.7791 23.91L24.405 21.4504C24.0271 21.3046 23.6001 21.3732 23.2868 21.6299L17.3432 26.5017C14.0769 24.6377 11.3598 21.9213 9.49542 18.6554L14.3698 12.7135C14.6269 12.4001 14.6955 11.9727 14.5494 11.5946L12.0871 5.22098C11.9196 4.78733 11.5026 4.50139 11.0377 4.50139L5.6814 4.50139ZM8.40021 16.4429L12.2142 11.7936L10.2663 6.75139L6.75 6.75139V8.27641C6.75 11.1733 7.33764 13.933 8.40021 16.4429ZM27.7237 29.2465C24.8267 29.2465 22.0667 28.6591 19.5565 27.5968L24.2064 23.7855L29.2491 25.7313V29.2465H27.7237Z"
    />
  </symbol>
  <symbol id="arrow" viewBox="0 0 14 14" xmlns="http://www.w3.org/2000/svg">
    <path
      fill="inherit"
      fill-rule="evenodd"
      clip-rule="evenodd"
      d="M12.4995 11.4373L12.4995 4.99822L13.9995 4.99822L13.9995 12.9979C13.9995 13.5502 13.5518 13.9979 12.9995 13.9979L4.99979 13.9979V12.4979L11.4389 12.4979L0.00159836 1.06066L1.06226 0L12.4995 11.4373Z"
    />
  </symbol>
  <symbol
    id="eys"
    viewBox="0 0 24 24"
    fill="none"
    xmlns="http://www.w3.org/2000/svg"
  >
    <g
      stroke="inherit"
      stroke-width="inherit"
      stroke-linecap="round"
      stroke-linejoin="round"
    >
      <path d="M1 12s4-8 11-8 11 8 11 8M1 12s4 8 11 8 11-8 11-8" />
      <circle cx="12" cy="12" r="3" />
    </g>
  </symbol>

  <symbol
    id="no-eys"
    viewBox="0 0 24 24"
    xmlns="http://www.w3.org/2000/svg"
    fill="none"
  >
    <path
      stroke="inherit"
      stroke-linecap="round"
      stroke-linejoin="round"
      stroke-width="inherit"
      d="m3 5 16 16M11.148 9.123a3 3 0 0 1 3.722 3.752M8.41 6.878C12.674 4.762 17.267 6.47 21 12c-1.027 1.521-2.119 2.753-3.251 3.696m-2.509 1.59C11.076 19.142 6.631 17.38 3 12c1.01-1.496 2.083-2.713 3.196-3.65"
    />
  </symbol>

  <symbol
    id="plus"
    viewBox="0 0 12 12"
    fill="inherit"
    xmlns="http://www.w3.org/2000/svg"
    xmlns:xlink="http://www.w3.org/1999/xlink"
  >
    <path
      d="M5.25 6.75L5.25 12L6.75 12L6.75 6.75L12 6.75L12 5.25L6.75 5.25L6.75 0L5.25 0L5.25 5.25L0 5.25L0 6.75L5.25 6.75Z"
      fill="inherit"
      fill-opacity="inherit"
      fill-rule="evenodd"
    />
  </symbol>

  <symbol id="home" viewBox="0 0 20 18.0005" xmlns="http://www.w3.org/2000/svg">
    <path
      d="M16.4932 7.98291L15.5156 8.34668L15.5156 9.38867L15.5156 15.0005C15.5156 15.8291 14.8447 16.5005 14.0156 16.5005L13 16.5005L13 16.5L13 11C13 9.89551 12.1045 9 11 9L9 9C7.89551 9 7 9.89551 7 11L7 16.5L7 16.5005L5.99316 16.5005C5.16406 16.5005 4.49316 15.8291 4.49316 15.0005L4.49316 9.38867L4.49316 8.3457L3.51465 7.98242L2.0459 7.43701L10.002 1.61963L17.9551 7.43848L16.4932 7.98291ZM19.3477 8.52051L17.0156 9.38867L17.0156 15.0005C17.0156 16.6572 15.6729 18.0005 14.0156 18.0005L5.99316 18.0005C4.33594 18.0005 2.99316 16.6572 2.99316 15.0005L2.99316 9.38867L0.652344 8.52002C-0.0947266 8.24268 -0.233398 7.24561 0.410156 6.7749L9.41211 0.192871C9.76367 -0.0644531 10.2412 -0.0644531 10.5928 0.192871L19.5898 6.77637C20.2324 7.24658 20.0947 8.24268 19.3477 8.52051ZM9 10.5L11 10.5C11.2764 10.5 11.5 10.7236 11.5 11L11.5 16.5L8.5 16.5L8.5 11C8.5 10.7236 8.72363 10.5 9 10.5Z"
      fill-rule="evenodd"
    />
  </symbol>
  <symbol id="catalog" viewBox="0 0 2 15" xmlns="http://www.w3.org/2000/svg">
    <path
      fill="inherit"
      d="M1.5 3a1.5 1.5 0 1 0 0-3 1.5 1.5 0 0 0 0 3ZM5 .75h15v1.5H5V.75Zm15 6H5v1.5h15v-1.5Zm0 6H5v1.5h15v-1.5ZM3 7.5a1.5 1.5 0 1 1-3 0 1.5 1.5 0 0 1 3 0ZM1.5 15a1.5 1.5 0 1 0 0-3 1.5 1.5 0 0 0 0 3Z"
      fill-rule="evenodd"
    />
  </symbol>
  <symbol
    id="menu"
    viewBox="0 0 24 24"
    xmlns="http://www.w3.org/2000/svg"
    xmlns:xlink="http://www.w3.org/1999/xlink"
  >
    <path
      d="M22 5.25L2 5.25L2 6.75L22 6.75L22 5.25ZM2 11.25L22 11.25L22 12.75L2 12.75L2 11.25ZM2 17.25L22 17.25L22 18.75L2 18.75L2 17.25Z"
      fill="inherit"
      fill-rule="evenodd"
    />
  </symbol>
  <symbol
    id="minus"
    viewBox="0 0 12 1"
    fill="inherit"
    xmlns="http://www.w3.org/2000/svg"
    xmlns:xlink="http://www.w3.org/1999/xlink"
  >
    <path
      d="M0 -0.75L12 -0.75L12 0.75L0 0.75L0 -0.75Z"
      fill="inherit"
      fill-opacity="inherit"
      fill-rule="evenodd"
    />
  </symbol>

  <symbol id="yet" xmlns="http://www.w3.org/2000/svg">
    <path
      fill="inherit"
      d="M13.5 3a1.5 1.5 0 1 1 0-3 1.5 1.5 0 0 1 0 3Zm-6 0a1.5 1.5 0 1 1 0-3 1.5 1.5 0 0 1 0 3ZM0 1.5a1.5 1.5 0 1 0 3 0 1.5 1.5 0 0 0-3 0Z"
      fill-rule="evenodd"
    />
  </symbol>
  <symbol
    id="share"
    viewBox="0 0 18 20"
    xmlns="http://www.w3.org/2000/svg"
    xmlns:xlink="http://www.w3.org/1999/xlink"
  >
    <path
      fill="inherit"
      d="M14.5 5.5C13.3955 5.5 12.5 4.60449 12.5 3.5C12.5 2.39551 13.3955 1.5 14.5 1.5C15.6045 1.5 16.5 2.39551 16.5 3.5C16.5 4.60449 15.6045 5.5 14.5 5.5ZM11.1797 4.61035C11.063 4.26123 11 3.88818 11 3.5C11 1.56689 12.5669 0 14.5 0C16.4331 0 18 1.56689 18 3.5C18 5.43311 16.4331 7 14.5 7C13.4946 7 12.5884 6.57617 11.9502 5.89746L6.82031 8.88965C6.93701 9.23877 7 9.61182 7 10C7 10.3882 6.93701 10.7612 6.82031 11.1104L11.9502 14.1025C12.5884 13.4238 13.4946 13 14.5 13C16.4331 13 18 14.5669 18 16.5C18 18.4331 16.4331 20 14.5 20C12.5669 20 11 18.4331 11 16.5C11 16.1118 11.063 15.7388 11.1797 15.3896L6.0498 12.3975C5.41162 13.0762 4.50537 13.5 3.5 13.5C1.56689 13.5 0 11.9331 0 10C0 8.06689 1.56689 6.5 3.5 6.5C4.50537 6.5 5.41162 6.92383 6.0498 7.60254L11.1797 4.61035ZM3.5 12C2.39551 12 1.5 11.1045 1.5 10C1.5 8.89551 2.39551 8 3.5 8C4.60449 8 5.5 8.89551 5.5 10C5.5 11.1045 4.60449 12 3.5 12ZM12.5 16.5C12.5 17.6045 13.3955 18.5 14.5 18.5C15.6045 18.5 16.5 17.6045 16.5 16.5C16.5 15.3955 15.6045 14.5 14.5 14.5C13.3955 14.5 12.5 15.3955 12.5 16.5Z"
      fill-rule="evenodd"
    />
  </symbol>

  <symbol id="check" fill="inherit" xmlns="http://www.w3.org/2000/svg">
    <path
      d="m14.03 5.03-7 7c-.3.29-.77.29-1.07 0l-4-4 1.07-1.07 3.47 3.47 6.46-6.47 1.07 1.07Z"
      fill="inherit"
      fill-rule="evenodd"
    />
  </symbol>
</svg>
