<svg style="display: none">
  <symbol
    id="heart"
    viewBox="0 0 24 24"
    xmlns="http://www.w3.org/2000/svg"
  >
    <path
      fill-rule="evenodd"
      clip-rule="evenodd"
      d="M3 8.97831C3 6.24655 5.16494 4 7.87453 4C9.28971 4 10.5168 4.74855 11.3676 5.76904C11.6045 6.0533 11.8168 6.36357 11.9997 6.69262C12.1825 6.36365 12.3946 6.05344 12.6314 5.76922C13.4816 4.74863 14.7083 4 16.1236 4C18.8332 4 20.9981 6.24655 20.9981 8.97831C20.9981 11.4006 19.4893 13.5485 17.7652 15.3159C16.4435 16.6709 14.8908 17.902 13.5947 18.9297C13.1917 19.2493 12.8134 19.5491 12.4747 19.827C12.1981 20.0538 11.8 20.0538 11.5234 19.827C11.1847 19.5491 10.8064 19.2493 10.4034 18.9297C9.10728 17.902 7.55461 16.6709 6.23286 15.3159C4.50876 13.5485 3 11.4006 3 8.97831ZM12.75 9.5H11.25C11.25 8.52096 10.8583 7.50072 10.2154 6.72954C9.5729 5.95883 8.73726 5.5 7.87453 5.5C6.02829 5.5 4.5 7.03961 4.5 8.97831C4.5 10.7843 5.64272 12.5628 7.30662 14.2685C8.5544 15.5477 9.99519 16.6905 11.2792 17.7089C11.5257 17.9044 11.7665 18.0954 11.9991 18.2819C12.2316 18.0954 12.4724 17.9044 12.7189 17.7089C14.0029 16.6905 15.4437 15.5477 16.6915 14.2685C18.3554 12.5628 19.4981 10.7843 19.4981 8.97831C19.4981 7.03961 17.9698 5.5 16.1236 5.5C15.2609 5.5 14.4258 5.95875 13.7838 6.72936C13.1414 7.50047 12.75 8.52075 12.75 9.5Z"
      fill="inherit"
    />
  </symbol>
<symbol    id="basket" viewBox="0 0 24 24"  xmlns="http://www.w3.org/2000/svg" xmlns:xlink="http://www.w3.org/1999/xlink">
	
	<path  d="M6.35986 6.96338L5.48291 18.8901C5.41895 19.7593 6.10693 20.5 6.97852 20.5L17.021 20.5C17.8931 20.5 18.5811 19.7593 18.5171 18.8901L17.6401 6.96338C17.6211 6.70215 17.4033 6.5 17.1416 6.5L15.9956 6.5L15.9956 9L14.4956 9L14.4956 6.5L9.5 6.5L9.5 9L8 9L8 6.5L6.8584 6.5C6.59619 6.5 6.37891 6.70215 6.35986 6.96338ZM8 5L6.8584 5C5.81055 5 4.94043 5.80859 4.86377 6.85352L3.98682 18.7798C3.85889 20.519 5.23535 22 6.97852 22L17.021 22C18.7646 22 20.1411 20.519 20.0132 18.7803L19.1362 6.85352C19.0596 5.80859 18.1895 5 17.1416 5L15.9956 5L15.9956 4.75C15.9951 3.23096 14.7642 2 13.2456 2L10.75 2C9.23145 2 8.00049 3.23096 8 4.75L8 5ZM9.5 5L9.5 4.75C9.50049 4.05957 10.0601 3.5 10.75 3.5L13.2456 3.5C13.9355 3.5 14.4956 4.05957 14.4956 4.75L14.4956 5L9.5 5Z" fill="inherit" fill-rule="evenodd"/>
</symbol>

<symbol id="eys" viewBox="0 0 24 24"  xmlns="http://www.w3.org/2000/svg" xmlns:xlink="http://www.w3.org/1999/xlink">

	<path d="M12.75 7L12.75 4L11.25 4L11.25 7L12.75 7ZM18.48 8.49L19.98 5.99L18.7 5.22L17.2 7.72L18.48 8.49ZM4.01 5.99L5.51 8.49L6.79 7.72L5.29 5.22L4.01 5.99ZM4.67 14C6.33 16.11 8.98 17.5 11.99 17.5C15 17.5 17.66 16.11 19.31 14C18.28 12.67 16.85 11.63 15.18 11.04C15.38 11.48 15.5 11.97 15.5 12.5C15.5 14.43 13.93 16 12 16C10.06 16 8.5 14.43 8.5 12.5C8.5 11.97 8.61 11.48 8.81 11.04C7.14 11.63 5.71 12.67 4.67 14ZM20.86 13.57C18.97 10.81 15.7 9 11.99 9L11.99 9C8.29 9 5.02 10.81 3.13 13.57C2.95 13.83 2.95 14.16 3.13 14.42C5.02 17.18 8.29 19 11.99 19C15.7 19 18.97 17.18 20.86 14.42C21.04 14.16 21.04 13.83 20.86 13.57ZM12 14.5C13.1 14.5 14 13.6 14 12.5C14 11.39 13.1 10.5 12 10.5C10.89 10.5 10 11.39 10 12.5C10 13.6 10.89 14.5 12 14.5Z" fill="inherit" fill-opacity="1.000000" fill-rule="evenodd"/>
</symbol>

  <symbol
    id="circle"
 
    viewBox="0 0 4 4"
    xmlns="http://www.w3.org/2000/svg"
  >
    <circle fill="inherit" cx="2" cy="2" r="2" />
  </symbol>


  <symbol
    id="compare"
  
    xmlns="http://www.w3.org/2000/svg"
  >
    <path
      fill="inherit"
      fill-rule="evenodd"
      d="M20 6.25H4v1.5h16v-1.5Zm-16 5h11v1.5H4v-1.5Zm15.75 6.5V20h-1.5v-2.25h-2.249L16 16.25h2.251V14h1.5v2.25H22l.001 1.5H19.75ZM11 16.25H4v1.5h7v-1.5Z"
    />
  </symbol>
  <symbol id="found" viewBox="0 0 24 24"  xmlns="http://www.w3.org/2000/svg" xmlns:xlink="http://www.w3.org/1999/xlink">
	
	<path  d="M17.5 11C17.5 14.5898 14.5898 17.5 11 17.5C7.41016 17.5 4.5 14.5898 4.5 11C4.5 7.41016 7.41016 4.5 11 4.5C14.5898 4.5 17.5 7.41016 17.5 11ZM16.1016 17.1626C14.7168 18.3101 12.939 19 11 19C6.58154 19 3 15.4185 3 11C3 6.58154 6.58154 3 11 3C15.4185 3 19 6.58154 19 11C19 12.939 18.3101 14.7168 17.1626 16.1016L20.999 19.9385L19.9385 20.999L16.1016 17.1626Z" fill="inherit"  fill-rule="evenodd"/>
</symbol>

 

  <symbol id="heart2" xmlns="http://www.w3.org/2000/svg">
    <path
      fill="inherit"
      d="M0 4.978C0 2.247 2.165 0 4.875 0 6.29 0 7.517.749 8.367 1.769c.237.284.45.595.633.924.183-.33.395-.64.632-.924C10.482.75 11.708 0 13.124 0c2.709 0 4.874 2.247 4.874 4.978 0 2.423-1.509 4.57-3.232 6.338-1.323 1.355-2.875 2.586-4.171 3.614-.404.32-.782.62-1.12.897a.75.75 0 0 1-.952 0 89.402 89.402 0 0 0-1.12-.897c-1.296-1.028-2.848-2.26-4.17-3.614C1.508 9.548 0 7.4 0 4.978Z"
    />
  </symbol>

  <symbol id="delete"  xmlns="http://www.w3.org/2000/svg">
    <path
      fill="inherit"
      fill-rule="evenodd"
      d="M3.994 2.332A2.748 2.748 0 0 1 6.71 0h2.566c1.356 0 2.51.99 2.716 2.332l.102.668h3.892v1.5H14.87l-.834 10.732A2.999 2.999 0 0 1 11.048 18h-6.11a2.999 2.999 0 0 1-2.988-2.768L1.116 4.5H0V3H3.892l.102-.668ZM10.578 3h-5.17l.068-.44A1.25 1.25 0 0 1 6.71 1.5h2.566c.616 0 1.14.45 1.234 1.06l.068.44Zm-7.96 1.5.826 10.616c.06.782.711 1.384 1.494 1.384h6.11c.783 0 1.433-.602 1.494-1.384L13.367 4.5H2.619Z"
    />
  </symbol>
</svg>
