<svg style="display: none">
  <symbol
    id="telegram"
    width="20"
    height="18"
    viewBox="0 0 20 19"
    xmlns="http://www.w3.org/2000/svg"
  >
    <path
      fill="inherit"
      fill-rule="evenodd"
      clip-rule="evenodd"
      d="M18.3377 1.71491L15.3809 16.0061L9.81104 10.4838L13.2378 7.08631L14.0147 6.31601L14.5411 5.79416L14.6377 5.69838C15.0521 5.28754 14.5469 4.62064 14.0392 4.90828L13.9208 4.97534L13.2759 5.34069L12.324 5.88L8.19899 8.21704L7.34579 8.70042L2.40773 6.38131L18.3377 1.71491ZM7.58368 10.4693C7.68713 10.5179 7.78149 10.5839 7.86266 10.6643L14.9797 17.7206C15.5433 18.2794 16.5022 17.9903 16.663 17.213L19.9752 1.20367C20.1281 0.464834 19.4389 -0.170703 18.7149 0.0413979L0.718994 5.31296C-0.164678 5.57182 -0.258446 6.78635 0.57502 7.17778L7.58368 10.4693Z"
    />
  </symbol>
  <symbol
    id="vk"
    width="20"
    height="13"
    viewBox="0 0 20 13"
    xmlns="http://www.w3.org/2000/svg"
  >
    <path
      fill="inherit"
      d="M9.45054 1.5C9.52054 1.5 9.60054 1.5 9.68054 1.5C10.1605 1.51 10.5605 1.54 10.8805 1.62C11.0005 1.65 11.1005 1.69 11.1805 1.74C11.2605 1.79 11.3205 1.86 11.3605 1.95C11.4005 2.04 11.4305 2.14 11.4505 2.23C11.4705 2.33 11.4805 2.46 11.4805 2.63C11.4805 2.8 11.4805 2.96 11.4705 3.12C11.4605 3.27 11.4605 3.48 11.4505 3.74C11.4405 4 11.4405 4.25 11.4405 4.47C11.4405 4.54 11.4405 4.66 11.4305 4.84C11.4205 5.02 11.4205 5.17 11.4305 5.27C11.4305 5.37 11.4405 5.49 11.4605 5.63C11.5105 6.02 11.6705 6.18 11.8605 6.18C12.0505 6.18 12.2705 6.04 12.4805 5.83C12.6005 5.7 12.7605 5.51 12.9405 5.24C13.1205 4.97 13.3205 4.65 13.5405 4.29C13.8905 3.68 14.2105 2.94 14.4905 2.22C14.5705 2.02 14.7605 1.86 15.1105 1.86H17.7505C18.1605 1.86 18.3705 1.91 18.4605 2.13C18.5505 2.35 18.2005 3.45 17.1805 4.81C17.0205 5 16.8305 5.25 16.5905 5.56C16.1305 6.15 15.8605 6.54 15.7905 6.72C15.5405 7.31 16.2705 7.82 16.6305 8.16C16.9005 8.41 18.1405 9.74 18.3705 10.15C18.4805 10.33 18.5405 10.59 18.4905 10.8C18.4405 10.98 18.1905 11.15 17.7505 11.15C17.5505 11.15 17.3405 11.15 17.1105 11.15C16.3605 11.15 15.5105 11.14 15.1105 11.14C14.5605 11.14 14.0705 10.64 13.7205 10.27C13.4805 10.02 13.2805 9.79 13.1105 9.58C12.9405 9.38 12.7605 9.2 12.5705 9.07C12.4305 8.97 12.3105 8.93 12.2005 8.93C11.9805 8.93 11.8005 9.1 11.6605 9.36C11.6005 9.46 11.5505 9.62 11.5105 9.82C11.4705 10.02 11.4505 10.25 11.4505 10.51C11.4505 10.6 11.4405 10.68 11.4205 10.75C11.3505 11.01 11.1105 11.13 10.8505 11.15H9.73054C8.88054 11.15 8.11054 10.96 7.36054 10.53C7.03054 10.34 6.72054 10.14 6.45054 9.94C6.18054 9.74 5.97054 9.57 5.82054 9.43C5.66054 9.3 5.51054 9.14 5.36054 8.97C5.26054 8.85 5.05054 8.58 4.73054 8.16C4.40054 7.75 4.09054 7.3 3.78054 6.83C3.48054 6.35 3.11054 5.73 2.70054 4.96C2.28054 4.19 1.90054 3.31 1.54054 2.48C1.40054 2.09 1.66054 1.85 2.06054 1.85H4.49054C4.73054 1.85 5.00054 2.04 5.09054 2.29C5.48054 3.26 5.95054 4.29 6.50054 5.18C6.66054 5.44 6.80054 5.64 6.93054 5.79C7.05054 5.94 7.18054 6.05 7.30054 6.14C7.43054 6.23 7.53054 6.27 7.63054 6.27C7.92054 6.27 8.06054 5.91 8.11054 5.57C8.24054 4.76 8.28054 3.9 8.11054 3.1C8.00054 2.56 7.76054 2.28 7.18054 2.19C7.10054 2.18 7.12054 2.11 7.22054 1.98C7.32054 1.87 7.43054 1.78 7.56054 1.71C7.85054 1.57 8.48054 1.5 9.45054 1.5ZM9.45054 0C8.19054 0 7.43054 0.11 6.90054 0.37C6.58054 0.53 6.33054 0.73 6.11054 0.98L6.09054 1L6.06054 1.03C6.06054 1.04 6.05054 1.04 6.05054 1.05C5.65054 0.62 5.08054 0.35 4.49054 0.35H2.06054C1.34054 0.35 0.710537 0.66 0.330537 1.2C-0.0294628 1.72 -0.0994628 2.38 0.140537 3L0.150537 3.03L0.160537 3.06C0.530537 3.92 0.930537 4.83 1.38054 5.67C1.82054 6.49 2.20054 7.14 2.53054 7.65C2.86054 8.15 3.19054 8.63 3.53054 9.08C3.98054 9.67 4.14054 9.87 4.23054 9.97C4.42054 10.19 4.62054 10.38 4.79054 10.54C4.97054 10.72 5.23054 10.94 5.58054 11.18C5.89054 11.41 6.24054 11.63 6.62054 11.85C7.58054 12.4 8.59054 12.67 9.73054 12.67H10.8405H10.9005L10.9605 12.66C11.7805 12.59 12.4405 12.14 12.7405 11.46C13.1905 11.93 13.9805 12.66 15.0905 12.66C15.2605 12.66 15.5005 12.66 15.7805 12.66C16.1805 12.66 16.6505 12.67 17.0905 12.67C17.3205 12.67 17.5505 12.67 17.7505 12.67C18.8205 12.67 19.6805 12.09 19.9205 11.2C20.0805 10.62 19.9705 9.95 19.6505 9.41C19.2205 8.66 17.6705 7.1 17.6505 7.09C17.5905 7.03 17.5205 6.97 17.4405 6.9C17.5205 6.79 17.6205 6.66 17.7505 6.49C18.0005 6.16 18.2005 5.91 18.3405 5.71C18.9505 4.9 20.3205 2.87 19.8205 1.59C19.5005 0.77 18.7905 0.36 17.7105 0.36H15.0705C14.1505 0.36 13.3805 0.86 13.0605 1.67C13.0105 1.81 12.9605 1.93 12.9105 2.06C12.9005 2.02 12.9005 1.97 12.8905 1.93C12.8505 1.73 12.7805 1.53 12.7005 1.34C12.5405 0.98 12.2805 0.68 11.9505 0.47C11.7405 0.33 11.4905 0.23 11.2205 0.16C10.7905 0.06 10.3005 0.01 9.70054 0H9.45054Z"
    />
  </symbol>
  <symbol
    id="youtube"
    width="20"
    height="16"
    viewBox="0 0 20 16"
    xmlns="http://www.w3.org/2000/svg"
  >
    <path
      fill="inherit"
      fill-rule="evenodd"
      clip-rule="evenodd"
      d="M1.87248 12.9712C1.37584 9.67594 1.37584 6.32406 1.87248 3.02877C1.95783 2.46245 2.40301 2.03169 2.95142 1.96034C7.66916 1.34655 12.3308 1.34655 17.0486 1.96034C17.597 2.03169 18.0422 2.46245 18.1275 3.02877C18.6242 6.32406 18.6242 9.67594 18.1275 12.9712C18.0422 13.5376 17.597 13.9683 17.0486 14.0397C12.3308 14.6534 7.66916 14.6534 2.95142 14.0397C2.40301 13.9683 1.95783 13.5376 1.87248 12.9712ZM17.2421 15.5271C12.3959 16.1576 7.60411 16.1576 2.7579 15.5271C1.53983 15.3686 0.57344 14.4171 0.389226 13.1948C-0.129742 9.75129 -0.129742 6.24871 0.389226 2.80523C0.57344 1.58293 1.53983 0.631353 2.7579 0.472879C7.60411 -0.157626 12.3959 -0.157627 17.2421 0.472879C18.4602 0.631353 19.4266 1.58293 19.6108 2.80523C20.1297 6.24871 20.1297 9.75129 19.6108 13.1948C19.4266 14.4171 18.4602 15.3686 17.2421 15.5271ZM8.63499 4.35635C8.40326 4.21774 8.11491 4.2144 7.88003 4.3476C7.64515 4.4808 7.5 4.72998 7.5 5V11C7.5 11.27 7.64515 11.5192 7.88003 11.6524C8.11491 11.7856 8.40326 11.7823 8.63499 11.6437L13.6506 8.64365C13.877 8.50823 14.0156 8.26381 14.0156 8C14.0156 7.73619 13.877 7.49177 13.6506 7.35635L8.63499 4.35635ZM9 9.67748V6.32252L11.8045 8L9 9.67748Z"
    />
  </symbol>

  <symbol
    xmlns="http://www.w3.org/2000/svg"
    width="20"
    height="18"
    viewBox="0 0 32 32"
  >
    <path
      d="M26.576 5.363a14.818 14.818 0 0 0-10.511-4.354C7.856 1.009 1.2 7.664 1.2 15.874c0 2.732.737 5.291 2.022 7.491l-.038-.07-2.109 7.702 7.879-2.067c2.051 1.139 4.498 1.809 7.102 1.809h.006c8.209-.003 14.862-6.659 14.862-14.868a14.82 14.82 0 0 0-4.349-10.507zM16.062 28.228h-.006c-2.319 0-4.489-.64-6.342-1.753l.056.031-.451-.267-4.675 1.227 1.247-4.559-.294-.467a12.23 12.23 0 0 1-1.889-6.565c0-6.822 5.531-12.353 12.353-12.353s12.353 5.531 12.353 12.353-5.53 12.353-12.353 12.353zm6.776-9.251c-.371-.186-2.197-1.083-2.537-1.208-.341-.124-.589-.185-.837.187-.246.371-.958 1.207-1.175 1.455-.216.249-.434.279-.805.094a10.23 10.23 0 0 1-2.997-1.852l.01.009a11.236 11.236 0 0 1-2.037-2.521l-.028-.052c-.216-.371-.023-.572.162-.757.167-.166.372-.434.557-.65.146-.179.271-.384.366-.604l.006-.017a.678.678 0 0 0-.033-.653l.002.003c-.094-.186-.836-2.014-1.145-2.758-.302-.724-.609-.625-.836-.637-.216-.01-.464-.012-.712-.012-.395.01-.746.188-.988.463l-.001.002a4.153 4.153 0 0 0-1.299 3.102v-.004a7.233 7.233 0 0 0 1.527 3.857l-.012-.015a16.693 16.693 0 0 0 6.251 5.564l.094.043c.548.248 1.25.513 1.968.74l.149.041a5.103 5.103 0 0 0 2.368.143l-.031.004a3.837 3.837 0 0 0 2.497-1.749l.009-.017a3.122 3.122 0 0 0 .214-1.784l.003.019c-.092-.155-.34-.247-.712-.434z"
    />
  </symbol>
  <symbol
    id="github"
    viewBox="0 0 20 20"
    version="1.1"
    xmlns="http://www.w3.org/2000/svg"
    xmlns:xlink="http://www.w3.org/1999/xlink"
    fill="inherit"
  >
    <g stroke-width="0"></g>
    <g stroke-linecap="round" stroke-linejoin="round"></g>
    <g>
      <defs></defs>
      <g stroke="none" stroke-width="1" fill-rule="evenodd">
        <g transform="translate(-140.000000, -7559.000000)" fill="inherit">
          <g transform="translate(56.000000, 160.000000)">
            <path
              d="M94,7399 C99.523,7399 104,7403.59 104,7409.253 C104,7413.782 101.138,7417.624 97.167,7418.981 C96.66,7419.082 96.48,7418.762 96.48,7418.489 C96.48,7418.151 96.492,7417.047 96.492,7415.675 C96.492,7414.719 96.172,7414.095 95.813,7413.777 C98.04,7413.523 100.38,7412.656 100.38,7408.718 C100.38,7407.598 99.992,7406.684 99.35,7405.966 C99.454,7405.707 99.797,7404.664 99.252,7403.252 C99.252,7403.252 98.414,7402.977 96.505,7404.303 C95.706,7404.076 94.85,7403.962 94,7403.958 C93.15,7403.962 92.295,7404.076 91.497,7404.303 C89.586,7402.977 88.746,7403.252 88.746,7403.252 C88.203,7404.664 88.546,7405.707 88.649,7405.966 C88.01,7406.684 87.619,7407.598 87.619,7408.718 C87.619,7412.646 89.954,7413.526 92.175,7413.785 C91.889,7414.041 91.63,7414.493 91.54,7415.156 C90.97,7415.418 89.522,7415.871 88.63,7414.304 C88.63,7414.304 88.101,7413.319 87.097,7413.247 C87.097,7413.247 86.122,7413.234 87.029,7413.87 C87.029,7413.87 87.684,7414.185 88.139,7415.37 C88.139,7415.37 88.726,7417.2 91.508,7416.58 C91.513,7417.437 91.522,7418.245 91.522,7418.489 C91.522,7418.76 91.338,7419.077 90.839,7418.982 C86.865,7417.627 84,7413.783 84,7409.253 C84,7403.59 88.478,7399 94,7399"
            ></path>
          </g>
        </g>
      </g>
    </g>
  </symbol>

  <symbol xmlns="http://www.w3.org/2000/svg" id="google" viewBox="0 0 20 20">
    <path
      fill="inherit"
      fill-rule="evenodd"
      d="M19.822 8.004h-9.61c0 1 0 2.998-.007 3.998h5.569c-.213.999-.97 2.398-2.039 3.103-.001-.001-.002.006-.004.005-1.421.938-3.297 1.151-4.69.871-2.183-.433-3.91-2.016-4.612-4.027.004-.003.007-.031.01-.033C4 10.673 4 9.003 4.44 8.004c.565-1.837 2.345-3.513 4.53-3.972 1.759-.373 3.743.031 5.202 1.396.194-.19 2.685-2.622 2.872-2.82C12.058-1.907 4.077-.318 1.09 5.51l-.006.011a9.767 9.767 0 0 0 .01 8.964l-.01.008a10.18 10.18 0 0 0 6.48 5.165c3.01.79 6.843.25 9.41-2.072l.003.003c2.175-1.958 3.529-5.296 2.845-9.586"
    />
  </symbol>
  <symbol id="yandex" xmlns="http://www.w3.org/2000/svg" viewBox="0 0 32 32">
    <path
      d="M21.88 2h-4c-4 0-8.07 3-8.07 9.62a8.33 8.33 0 0 0 4.14 7.66L9 28.13a1.25 1.25 0 0 0 0 1.27 1.21 1.21 0 0 0 1 .6h2.49a1.24 1.24 0 0 0 1.2-.75l4.59-9h.34v8.62a1.14 1.14 0 0 0 1.2 1.13H22a1.12 1.12 0 0 0 1.16-1.06V3.22A1.19 1.19 0 0 0 22 2ZM18.7 16.28h-.59c-2.3 0-3.66-1.87-3.66-5 0-3.9 1.73-5.29 3.34-5.29h.94Z"
      fill="inherit"
    />
  </symbol>
  


  




<symbol id="vk2" fill="inherit" xmlns="http://www.w3.org/2000/svg"  viewBox="0 0 94 94" xml:space="preserve" stroke="#988b8b"><path d="M89 0H5a5 5 0 0 0-5 5v84a5 5 0 0 0 5 5h84a5 5 0 0 0 5-5V5a5 5 0 0 0-5-5zM74.869 52.943c2.562 2.5 5.271 4.854 7.572 7.617 1.018 1.22 1.978 2.48 2.709 3.899 1.041 2.024.101 4.247-1.713 4.366l-11.256-.003c-2.906.239-5.22-.931-7.172-2.918-1.555-1.585-3.001-3.277-4.5-4.914-.611-.673-1.259-1.306-2.025-1.806-1.534-.996-2.867-.692-3.748.909-.896 1.63-1.103 3.438-1.185 5.255-.125 2.655-.925 3.348-3.588 3.471-5.69.268-11.091-.596-16.108-3.463-4.429-2.53-7.854-6.104-10.838-10.146-5.816-7.883-10.27-16.536-14.27-25.437-.901-2.005-.242-3.078 1.967-3.119 3.676-.073 7.351-.063 11.022-.004 1.496.023 2.485.879 3.058 2.289 1.985 4.885 4.421 9.533 7.471 13.843.813 1.147 1.643 2.292 2.823 3.103 1.304.896 2.298.601 2.913-.854.393-.928.563-1.914.647-2.906.292-3.396.327-6.792-.177-10.175-.315-2.116-1.507-3.483-3.617-3.883-1.074-.204-.917-.602-.395-1.215.906-1.062 1.76-1.718 3.456-1.718l12.721-.002c2.006.392 2.452 1.292 2.725 3.311l.012 14.133c-.021.782.391 3.098 1.795 3.61 1.123.371 1.868-.53 2.54-1.244 3.048-3.235 5.22-7.056 7.167-11.009.857-1.743 1.6-3.549 2.32-5.356.533-1.337 1.367-1.995 2.875-1.971l12.246.013c.36 0 .729.004 1.086.063 2.062.355 2.627 1.243 1.99 3.257-1.004 3.163-2.959 5.799-4.871 8.441-2.043 2.825-4.224 5.557-6.252 8.396-1.858 2.604-1.708 3.912.6 6.167z"/></symbol>
</svg>
